<mxfile host="app.diagrams.net" modified="2023-04-10T06:32:15.651Z" agent="Mozilla/5.0 (X11; Linux x86_64) AppleWebKit/537.36 (KHTML, like Gecko) Chrome/112.0.0.0 Safari/537.36" version="21.1.5" etag="6mnlzrGbKFLQmo0KBNJ9" type="device">
  <diagram id="C5RBs43oDa-KdzZeNtuy" name="Page-1">
    <mxGraphModel dx="2442" dy="2273" grid="1" gridSize="10" guides="1" tooltips="1" connect="1" arrows="1" fold="1" page="1" pageScale="1" pageWidth="827" pageHeight="1169" math="0" shadow="0">
      <root>
        <mxCell id="WIyWlLk6GJQsqaUBKTNV-0" />
        <mxCell id="WIyWlLk6GJQsqaUBKTNV-1" parent="WIyWlLk6GJQsqaUBKTNV-0" />
        <mxCell id="0" value="" style="rounded=0;whiteSpace=wrap;html=1;fillColor=none;strokeWidth=3;" parent="WIyWlLk6GJQsqaUBKTNV-1" vertex="1">
          <mxGeometry x="-1560" y="-20" width="800" height="390" as="geometry" />
        </mxCell>
        <mxCell id="BI5n3Qp8y2SINLpLzRSa-2" value="&lt;p style=&quot;margin:0px;margin-top:4px;text-align:center;&quot;&gt;&lt;b&gt;Logic&lt;/b&gt;&lt;/p&gt;" style="verticalAlign=top;align=left;overflow=fill;fontSize=12;fontFamily=Helvetica;html=1;whiteSpace=wrap;" parent="WIyWlLk6GJQsqaUBKTNV-1" vertex="1">
          <mxGeometry x="-1290" y="-80" width="90" height="40" as="geometry" />
        </mxCell>
        <mxCell id="TAQ5hfYrZWHMHVjtkxTK-8" style="edgeStyle=elbowEdgeStyle;rounded=0;orthogonalLoop=1;jettySize=auto;html=1;exitX=0;exitY=0.5;exitDx=0;exitDy=0;entryX=1;entryY=0.25;entryDx=0;entryDy=0;" parent="WIyWlLk6GJQsqaUBKTNV-1" source="BI5n3Qp8y2SINLpLzRSa-4" target="BI5n3Qp8y2SINLpLzRSa-52" edge="1">
          <mxGeometry relative="1" as="geometry">
            <Array as="points">
              <mxPoint x="-1040" y="140" />
            </Array>
          </mxGeometry>
        </mxCell>
        <mxCell id="BI5n3Qp8y2SINLpLzRSa-4" value="&lt;p style=&quot;margin:0px;margin-top:4px;text-align:center;&quot;&gt;&lt;b&gt;CommandBox&lt;/b&gt;&lt;/p&gt;&lt;hr&gt;&lt;p style=&quot;margin:0px;margin-left:4px;&quot;&gt;&lt;span style=&quot;background-color: initial;&quot;&gt;+ setMode(Mode)&lt;/span&gt;&lt;br&gt;&lt;/p&gt;&lt;p style=&quot;margin:0px;margin-left:4px;&quot;&gt;&lt;br&gt;&lt;/p&gt;" style="verticalAlign=top;align=left;overflow=fill;fontSize=12;fontFamily=Helvetica;html=1;whiteSpace=wrap;" parent="WIyWlLk6GJQsqaUBKTNV-1" vertex="1">
          <mxGeometry x="-1025" y="137.5" width="170" height="55" as="geometry" />
        </mxCell>
        <mxCell id="BI5n3Qp8y2SINLpLzRSa-46" style="edgeStyle=elbowEdgeStyle;rounded=0;orthogonalLoop=1;jettySize=auto;html=1;entryX=1.001;entryY=0.532;entryDx=0;entryDy=0;entryPerimeter=0;exitX=1;exitY=0.5;exitDx=0;exitDy=0;" parent="WIyWlLk6GJQsqaUBKTNV-1" source="BI5n3Qp8y2SINLpLzRSa-6" target="BI5n3Qp8y2SINLpLzRSa-4" edge="1">
          <mxGeometry relative="1" as="geometry">
            <mxPoint x="-670" y="110" as="sourcePoint" />
            <Array as="points">
              <mxPoint x="-780" y="180" />
            </Array>
            <mxPoint x="-760" y="330" as="targetPoint" />
          </mxGeometry>
        </mxCell>
        <mxCell id="BI5n3Qp8y2SINLpLzRSa-6" value="&lt;p style=&quot;margin:0px;margin-top:4px;text-align:center;&quot;&gt;&lt;b&gt;MainWindow&lt;/b&gt;&lt;/p&gt;&lt;hr size=&quot;1&quot;&gt;&lt;p style=&quot;margin:0px;margin-left:4px;&quot;&gt;&lt;span style=&quot;background-color: initial;&quot;&gt;+ executeCommand(String): CommandResult&lt;/span&gt;&lt;br&gt;&lt;/p&gt;&lt;p style=&quot;margin:0px;margin-left:4px;&quot;&gt;&lt;span style=&quot;background-color: initial;&quot;&gt;+ getSelectedEntityIdentifier(String): Optional&amp;lt;Mode&amp;gt;&lt;/span&gt;&lt;/p&gt;&lt;p style=&quot;margin:0px;margin-left:4px;&quot;&gt;&lt;span style=&quot;background-color: initial;&quot;&gt;+ setCommandBoxMode(Mode)&lt;/span&gt;&lt;/p&gt;&lt;p style=&quot;margin:0px;margin-left:4px;&quot;&gt;&lt;span style=&quot;background-color: initial;&quot;&gt;+ setClients(ObservableList&amp;lt;Client&amp;gt;)&lt;/span&gt;&lt;/p&gt;&lt;p style=&quot;margin:0px;margin-left:4px;&quot;&gt;&lt;span style=&quot;background-color: initial;&quot;&gt;+ setProjects(ObservableList&amp;lt;Project&amp;gt;)&lt;/span&gt;&lt;/p&gt;" style="verticalAlign=top;align=left;overflow=fill;fontSize=12;fontFamily=Helvetica;html=1;whiteSpace=wrap;" parent="WIyWlLk6GJQsqaUBKTNV-1" vertex="1">
          <mxGeometry x="-1110" width="310" height="110" as="geometry" />
        </mxCell>
        <mxCell id="BI5n3Qp8y2SINLpLzRSa-11" value="" style="endArrow=classic;html=1;rounded=0;entryX=1;entryY=0.5;entryDx=0;entryDy=0;exitX=0.5;exitY=0;exitDx=0;exitDy=0;edgeStyle=elbowEdgeStyle;" parent="WIyWlLk6GJQsqaUBKTNV-1" source="BI5n3Qp8y2SINLpLzRSa-6" target="BI5n3Qp8y2SINLpLzRSa-2" edge="1">
          <mxGeometry width="50" height="50" relative="1" as="geometry">
            <mxPoint x="-510" y="220" as="sourcePoint" />
            <mxPoint x="-460" y="170" as="targetPoint" />
            <Array as="points">
              <mxPoint x="-960" y="20" />
            </Array>
          </mxGeometry>
        </mxCell>
        <mxCell id="BI5n3Qp8y2SINLpLzRSa-60" style="edgeStyle=elbowEdgeStyle;rounded=0;orthogonalLoop=1;jettySize=auto;html=1;exitX=1;exitY=0.75;exitDx=0;exitDy=0;entryX=0.5;entryY=0;entryDx=0;entryDy=0;dashed=1;" parent="WIyWlLk6GJQsqaUBKTNV-1" source="BI5n3Qp8y2SINLpLzRSa-52" target="BI5n3Qp8y2SINLpLzRSa-58" edge="1">
          <mxGeometry relative="1" as="geometry">
            <Array as="points">
              <mxPoint x="-955" y="310" />
            </Array>
          </mxGeometry>
        </mxCell>
        <mxCell id="BI5n3Qp8y2SINLpLzRSa-52" value="&lt;p style=&quot;margin:0px;margin-top:4px;text-align:center;&quot;&gt;&lt;b&gt;{abstract}&lt;/b&gt;&lt;/p&gt;&lt;p style=&quot;margin:0px;margin-top:4px;text-align:center;&quot;&gt;&lt;b&gt;Mode&lt;/b&gt;&lt;/p&gt;&lt;hr&gt;&amp;nbsp;+ getModeType(): ModeType {abstract}&lt;br&gt;&amp;nbsp;+ setupMode(String) {abstract}&lt;br&gt;&amp;nbsp;+ onInputChange(String) {abstract}&lt;br&gt;&amp;nbsp;+ onInputSubmit(String): Optional&amp;lt;Mode&amp;gt; {abstract}&lt;br&gt;&amp;nbsp;+ teardownMode() {abstract}" style="verticalAlign=top;align=left;overflow=fill;fontSize=12;fontFamily=Helvetica;html=1;whiteSpace=wrap;" parent="WIyWlLk6GJQsqaUBKTNV-1" vertex="1">
          <mxGeometry x="-1385" y="125" width="290" height="130" as="geometry" />
        </mxCell>
        <mxCell id="BI5n3Qp8y2SINLpLzRSa-58" value="&lt;p style=&quot;margin:0px;margin-top:4px;text-align:center;&quot;&gt;&lt;b&gt;&amp;lt;&amp;lt;enumeration&amp;gt;&amp;gt;&lt;/b&gt;&lt;/p&gt;&lt;p style=&quot;margin:0px;margin-top:4px;text-align:center;&quot;&gt;&lt;b&gt;ModeType&lt;/b&gt;&lt;/p&gt;&lt;hr size=&quot;1&quot;&gt;&lt;p style=&quot;margin:0px;margin-left:4px;&quot;&gt;&amp;nbsp;COMMAND_MODE&lt;/p&gt;&lt;p style=&quot;margin:0px;margin-left:4px;&quot;&gt;&amp;nbsp;SEARCH_MODE&lt;/p&gt;" style="verticalAlign=top;align=left;overflow=fill;fontSize=12;fontFamily=Helvetica;html=1;whiteSpace=wrap;" parent="WIyWlLk6GJQsqaUBKTNV-1" vertex="1">
          <mxGeometry x="-1035" y="390" width="160" height="90" as="geometry" />
        </mxCell>
        <mxCell id="9bSLiEjZamqKpTBy-hUJ-6" style="edgeStyle=elbowEdgeStyle;rounded=0;orthogonalLoop=1;jettySize=auto;html=1;exitX=-0.003;exitY=0.36;exitDx=0;exitDy=0;exitPerimeter=0;entryX=0;entryY=0.25;entryDx=0;entryDy=0;" parent="WIyWlLk6GJQsqaUBKTNV-1" source="BI5n3Qp8y2SINLpLzRSa-65" target="BI5n3Qp8y2SINLpLzRSa-6" edge="1">
          <mxGeometry relative="1" as="geometry">
            <mxPoint x="-1360" y="630" as="sourcePoint" />
            <mxPoint x="-820" y="80" as="targetPoint" />
            <Array as="points">
              <mxPoint x="-1480" y="300" />
            </Array>
          </mxGeometry>
        </mxCell>
        <mxCell id="9bSLiEjZamqKpTBy-hUJ-10" style="edgeStyle=elbowEdgeStyle;rounded=0;orthogonalLoop=1;jettySize=auto;html=1;exitX=0;exitY=0.75;exitDx=0;exitDy=0;entryX=0;entryY=0.5;entryDx=0;entryDy=0;" parent="WIyWlLk6GJQsqaUBKTNV-1" source="BI5n3Qp8y2SINLpLzRSa-65" target="BI5n3Qp8y2SINLpLzRSa-2" edge="1">
          <mxGeometry relative="1" as="geometry">
            <mxPoint x="-1290" as="targetPoint" />
            <Array as="points">
              <mxPoint x="-1530" y="90" />
            </Array>
          </mxGeometry>
        </mxCell>
        <mxCell id="9bSLiEjZamqKpTBy-hUJ-16" style="edgeStyle=orthogonalEdgeStyle;rounded=0;orthogonalLoop=1;jettySize=auto;html=1;exitX=0.5;exitY=1;exitDx=0;exitDy=0;entryX=0.5;entryY=0;entryDx=0;entryDy=0;dashed=1;" parent="WIyWlLk6GJQsqaUBKTNV-1" source="BI5n3Qp8y2SINLpLzRSa-65" target="9bSLiEjZamqKpTBy-hUJ-15" edge="1">
          <mxGeometry relative="1" as="geometry">
            <Array as="points" />
          </mxGeometry>
        </mxCell>
        <mxCell id="TAQ5hfYrZWHMHVjtkxTK-11" style="edgeStyle=elbowEdgeStyle;rounded=0;orthogonalLoop=1;jettySize=auto;html=1;exitX=1;exitY=0.5;exitDx=0;exitDy=0;endSize=12;endArrow=block;endFill=0;entryX=0.5;entryY=1;entryDx=0;entryDy=0;" parent="WIyWlLk6GJQsqaUBKTNV-1" source="BI5n3Qp8y2SINLpLzRSa-65" target="BI5n3Qp8y2SINLpLzRSa-52" edge="1">
          <mxGeometry relative="1" as="geometry">
            <mxPoint x="-1180" y="360" as="targetPoint" />
            <Array as="points">
              <mxPoint x="-1240" y="320" />
            </Array>
          </mxGeometry>
        </mxCell>
        <mxCell id="BI5n3Qp8y2SINLpLzRSa-65" value="&lt;p style=&quot;margin:0px;margin-top:4px;text-align:center;&quot;&gt;&lt;b&gt;SearchMode&lt;/b&gt;&lt;/p&gt;" style="verticalAlign=top;align=left;overflow=fill;fontSize=12;fontFamily=Helvetica;html=1;whiteSpace=wrap;" parent="WIyWlLk6GJQsqaUBKTNV-1" vertex="1">
          <mxGeometry x="-1420" y="320" width="160" height="20" as="geometry" />
        </mxCell>
        <mxCell id="9bSLiEjZamqKpTBy-hUJ-7" style="edgeStyle=elbowEdgeStyle;rounded=0;orthogonalLoop=1;jettySize=auto;html=1;exitX=0;exitY=0.5;exitDx=0;exitDy=0;endArrow=classic;endFill=1;entryX=0;entryY=0.75;entryDx=0;entryDy=0;" parent="WIyWlLk6GJQsqaUBKTNV-1" source="9bSLiEjZamqKpTBy-hUJ-0" target="BI5n3Qp8y2SINLpLzRSa-6" edge="1">
          <mxGeometry relative="1" as="geometry">
            <mxPoint x="-810" y="118" as="targetPoint" />
            <Array as="points">
              <mxPoint x="-1460" y="280" />
            </Array>
          </mxGeometry>
        </mxCell>
        <mxCell id="TAQ5hfYrZWHMHVjtkxTK-6" style="edgeStyle=orthogonalEdgeStyle;rounded=0;orthogonalLoop=1;jettySize=auto;html=1;exitX=1;exitY=0.5;exitDx=0;exitDy=0;endArrow=block;endFill=0;endSize=12;" parent="WIyWlLk6GJQsqaUBKTNV-1" source="9bSLiEjZamqKpTBy-hUJ-0" target="BI5n3Qp8y2SINLpLzRSa-52" edge="1">
          <mxGeometry relative="1" as="geometry" />
        </mxCell>
        <mxCell id="9bSLiEjZamqKpTBy-hUJ-0" value="&lt;p style=&quot;margin:0px;margin-top:4px;text-align:center;&quot;&gt;&lt;b&gt;CommandMode&lt;/b&gt;&lt;/p&gt;" style="verticalAlign=top;align=left;overflow=fill;fontSize=12;fontFamily=Helvetica;html=1;whiteSpace=wrap;" parent="WIyWlLk6GJQsqaUBKTNV-1" vertex="1">
          <mxGeometry x="-1420" y="280" width="160" height="20" as="geometry" />
        </mxCell>
        <mxCell id="9bSLiEjZamqKpTBy-hUJ-3" style="edgeStyle=orthogonalEdgeStyle;rounded=0;orthogonalLoop=1;jettySize=auto;html=1;exitX=0.5;exitY=1;exitDx=0;exitDy=0;" parent="WIyWlLk6GJQsqaUBKTNV-1" source="9bSLiEjZamqKpTBy-hUJ-0" target="9bSLiEjZamqKpTBy-hUJ-0" edge="1">
          <mxGeometry relative="1" as="geometry" />
        </mxCell>
        <mxCell id="9bSLiEjZamqKpTBy-hUJ-15" value="&lt;p style=&quot;margin:0px;margin-top:4px;text-align:center;&quot;&gt;&lt;b&gt;FuzzyManager&lt;/b&gt;&lt;/p&gt;&lt;hr size=&quot;1&quot;&gt;&lt;p style=&quot;margin:0px;margin-left:4px;&quot;&gt;+ &lt;u&gt;rankItems(ObservableList, String&lt;/u&gt;&lt;u style=&quot;background-color: initial;&quot;&gt;)&lt;/u&gt;&lt;/p&gt;" style="verticalAlign=top;align=left;overflow=fill;fontSize=12;fontFamily=Helvetica;html=1;whiteSpace=wrap;" parent="WIyWlLk6GJQsqaUBKTNV-1" vertex="1">
          <mxGeometry x="-1460" y="390" width="240" height="60" as="geometry" />
        </mxCell>
        <mxCell id="TAQ5hfYrZWHMHVjtkxTK-14" value="1" style="text;html=1;align=center;verticalAlign=middle;resizable=0;points=[];autosize=1;strokeColor=none;fillColor=none;" parent="WIyWlLk6GJQsqaUBKTNV-1" vertex="1">
          <mxGeometry x="-1120" y="-60" width="30" height="30" as="geometry" />
        </mxCell>
        <mxCell id="TAQ5hfYrZWHMHVjtkxTK-15" value="1" style="text;html=1;align=center;verticalAlign=middle;resizable=0;points=[];autosize=1;strokeColor=none;fillColor=none;" parent="WIyWlLk6GJQsqaUBKTNV-1" vertex="1">
          <mxGeometry x="-1320" y="-60" width="30" height="30" as="geometry" />
        </mxCell>
        <mxCell id="TAQ5hfYrZWHMHVjtkxTK-16" value="1" style="text;html=1;align=center;verticalAlign=middle;resizable=0;points=[];autosize=1;strokeColor=none;fillColor=none;" parent="WIyWlLk6GJQsqaUBKTNV-1" vertex="1">
          <mxGeometry x="-1150" width="30" height="30" as="geometry" />
        </mxCell>
        <mxCell id="TAQ5hfYrZWHMHVjtkxTK-17" value="1" style="text;html=1;align=center;verticalAlign=middle;resizable=0;points=[];autosize=1;strokeColor=none;fillColor=none;" parent="WIyWlLk6GJQsqaUBKTNV-1" vertex="1">
          <mxGeometry x="-1150" y="50" width="30" height="30" as="geometry" />
        </mxCell>
        <mxCell id="TAQ5hfYrZWHMHVjtkxTK-18" value="1" style="text;html=1;align=center;verticalAlign=middle;resizable=0;points=[];autosize=1;strokeColor=none;fillColor=none;" parent="WIyWlLk6GJQsqaUBKTNV-1" vertex="1">
          <mxGeometry x="-850" y="140" width="30" height="30" as="geometry" />
        </mxCell>
        <mxCell id="TAQ5hfYrZWHMHVjtkxTK-19" value="1" style="text;html=1;align=center;verticalAlign=middle;resizable=0;points=[];autosize=1;strokeColor=none;fillColor=none;" parent="WIyWlLk6GJQsqaUBKTNV-1" vertex="1">
          <mxGeometry x="-1095" y="125" width="30" height="30" as="geometry" />
        </mxCell>
        <mxCell id="1" value="&lt;h1&gt;UI&lt;/h1&gt;" style="text;html=1;strokeColor=none;fillColor=none;spacing=5;spacingTop=-20;whiteSpace=wrap;overflow=hidden;rounded=0;strokeWidth=3;" parent="WIyWlLk6GJQsqaUBKTNV-1" vertex="1">
          <mxGeometry x="-820" y="320" width="40" height="30" as="geometry" />
        </mxCell>
      </root>
    </mxGraphModel>
  </diagram>
</mxfile>
